<?xml version="1.0" encoding="UTF-8"?>
<!DOCTYPE svg PUBLIC "-//W3C//DTD SVG 1.1//EN" "http://www.w3.org/Graphics/SVG/1.1/DTD/svg11.dtd">
<svg xmlns="http://www.w3.org/2000/svg" version="1.1" width="1473px" height="438px" style="shape-rendering:geometricPrecision; text-rendering:geometricPrecision; image-rendering:optimizeQuality; fill-rule:evenodd; clip-rule:evenodd" xmlns:xlink="http://www.w3.org/1999/xlink">
<g><path style="opacity:0.984" fill="#e8473e" d="M 204.5,-0.5 C 209.5,-0.5 214.5,-0.5 219.5,-0.5C 219.5,20.8333 219.5,42.1667 219.5,63.5C 163.447,65.1014 119.613,88.7681 88,134.5C 59.5058,181.927 55.8391,231.26 77,282.5C 102.953,335.091 145.119,365.258 203.5,373C 276.554,375.858 329.054,344.691 361,279.5C 369.203,259.65 373.37,238.984 373.5,217.5C 394.833,217.5 416.167,217.5 437.5,217.5C 435.932,293.144 404.932,353.31 344.5,398C 311.168,420.609 274.501,433.776 234.5,437.5C 223.833,437.5 213.167,437.5 202.5,437.5C 132.173,430.265 76.6733,397.931 36,340.5C 15.1482,308.442 2.98153,273.442 -0.5,235.5C -0.5,224.167 -0.5,212.833 -0.5,201.5C 9.6847,114.286 54.6847,52.4528 134.5,16C 157.15,7.00232 180.483,1.50232 204.5,-0.5 Z M 263.5,345.5 C 263.657,346.873 263.49,348.207 263,349.5C 262.097,348.299 260.931,347.465 259.5,347C 260.901,346.59 262.234,346.09 263.5,345.5 Z"/></g>
<g><path style="opacity:0.928" fill="#12a199" d="M 230.5,-0.5 C 232.5,-0.5 234.5,-0.5 236.5,-0.5C 320.084,9.60504 380.584,52.2717 418,127.5C 429.364,152.624 435.531,178.957 436.5,206.5C 431.678,207.065 427.178,206.399 423,204.5C 415.905,134.105 382.739,79.9384 323.5,42C 294.759,25.2299 263.759,15.7299 230.5,13.5C 230.5,8.83333 230.5,4.16667 230.5,-0.5 Z"/></g>
<g><path style="opacity:0.929" fill="#12a199" d="M 231.5,26.5 C 306.492,33.5616 360.992,70.5616 395,137.5C 405.214,159.735 411.047,183.068 412.5,207.5C 407.833,207.5 403.167,207.5 398.5,207.5C 390.779,135.851 354.446,84.6845 289.5,54C 270.97,46.034 251.636,41.534 231.5,40.5C 231.5,35.8333 231.5,31.1667 231.5,26.5 Z"/></g>
<g><path style="opacity:0.927" fill="#12a199" d="M 231.5,50.5 C 297.24,57.4381 344.74,90.4381 374,149.5C 381.971,168.049 386.804,187.382 388.5,207.5C 383.833,207.5 379.167,207.5 374.5,207.5C 367.78,147.978 337.78,104.812 284.5,78C 267.669,70.2089 250.002,65.7089 231.5,64.5C 231.5,59.8333 231.5,55.1667 231.5,50.5 Z"/></g>
<g><path style="opacity:0.94" fill="#000000" d="M 558.5,113.5 C 563.5,113.5 568.5,113.5 573.5,113.5C 573.333,137.502 573.5,161.502 574,185.5C 575.647,194.479 580.814,200.313 589.5,203C 612.831,203.5 636.164,203.667 659.5,203.5C 659.5,208.5 659.5,213.5 659.5,218.5C 635.164,218.667 610.831,218.5 586.5,218C 570.907,214.74 561.74,205.24 559,189.5C 558.5,164.169 558.333,138.836 558.5,113.5 Z"/></g>
<g><path style="opacity:0.929" fill="#000000" d="M 688.5,113.5 C 712.169,113.333 735.836,113.5 759.5,114C 778.278,117.783 788.112,129.283 789,148.5C 789.5,171.831 789.667,195.164 789.5,218.5C 784.167,218.5 778.833,218.5 773.5,218.5C 773.5,199.167 773.5,179.833 773.5,160.5C 748.831,160.333 724.164,160.5 699.5,161C 689.022,166.735 684.855,175.569 687,187.5C 689.013,194.181 693.18,199.014 699.5,202C 718.112,203.448 736.778,203.948 755.5,203.5C 755.5,208.5 755.5,213.5 755.5,218.5C 736.83,218.667 718.164,218.5 699.5,218C 683.92,214.752 674.753,205.252 672,189.5C 668.453,169.759 675.62,155.593 693.5,147C 696.424,146.012 699.424,145.346 702.5,145C 726.174,144.833 749.84,144.333 773.5,143.5C 770.712,135.207 765.046,130.374 756.5,129C 733.836,128.5 711.169,128.333 688.5,128.5C 688.5,123.5 688.5,118.5 688.5,113.5 Z"/></g>
<g><path style="opacity:0.939" fill="#000000" d="M 965.5,113.5 C 989.169,113.333 1012.84,113.5 1036.5,114C 1052.96,117.131 1062.8,126.964 1066,143.5C 1066.5,168.498 1066.67,193.498 1066.5,218.5C 1061.5,218.5 1056.5,218.5 1051.5,218.5C 1051.5,199.167 1051.5,179.833 1051.5,160.5C 1026.83,160.333 1002.16,160.5 977.5,161C 968.384,164.867 963.717,171.867 963.5,182C 964.249,191.067 968.582,197.734 976.5,202C 995.112,203.448 1013.78,203.948 1032.5,203.5C 1032.5,208.5 1032.5,213.5 1032.5,218.5C 1013.83,218.667 995.164,218.5 976.5,218C 957.863,212.596 948.529,200.096 948.5,180.5C 949.071,162.844 957.738,151.344 974.5,146C 999.795,144.558 1025.13,144.058 1050.5,144.5C 1048.19,135.697 1042.53,130.53 1033.5,129C 1010.84,128.5 988.169,128.333 965.5,128.5C 965.5,123.5 965.5,118.5 965.5,113.5 Z"/></g>
<g><path style="opacity:0.935" fill="#000000" d="M 1233.5,113.5 C 1257.17,113.333 1280.84,113.5 1304.5,114C 1320.75,116.253 1330.59,125.419 1334,141.5C 1334.5,167.165 1334.67,192.831 1334.5,218.5C 1329.5,218.5 1324.5,218.5 1319.5,218.5C 1319.5,199.167 1319.5,179.833 1319.5,160.5C 1294.83,160.333 1270.16,160.5 1245.5,161C 1234.5,166.852 1230.33,176.019 1233,188.5C 1235.44,194.608 1239.61,199.108 1245.5,202C 1264.1,203.461 1282.76,203.961 1301.5,203.5C 1301.5,208.5 1301.5,213.5 1301.5,218.5C 1282.83,218.667 1264.16,218.5 1245.5,218C 1230.37,214.873 1221.21,205.707 1218,190.5C 1213.94,171.635 1220.1,157.468 1236.5,148C 1240.35,146.384 1244.35,145.384 1248.5,145C 1272.17,144.667 1295.83,144.333 1319.5,144C 1316.95,135.45 1311.28,130.45 1302.5,129C 1279.5,128.5 1256.5,128.333 1233.5,128.5C 1233.5,123.5 1233.5,118.5 1233.5,113.5 Z"/></g>
<g><path style="opacity:0.946" fill="#000000" d="M 1364.5,113.5 C 1369.5,113.5 1374.5,113.5 1379.5,113.5C 1379.33,138.169 1379.5,162.836 1380,187.5C 1382.2,195.702 1387.37,200.869 1395.5,203C 1418.83,203.5 1442.16,203.667 1465.5,203.5C 1465.5,208.5 1465.5,213.5 1465.5,218.5C 1441.16,218.667 1416.83,218.5 1392.5,218C 1377.78,214.95 1368.62,206.117 1365,191.5C 1364.5,165.502 1364.33,139.502 1364.5,113.5 Z"/></g>
<g><path style="opacity:0.955" fill="#000000" d="M 815.5,115.5 C 855.5,115.5 895.5,115.5 935.5,115.5C 935.5,120.5 935.5,125.5 935.5,130.5C 918.167,130.5 900.833,130.5 883.5,130.5C 883.5,159.833 883.5,189.167 883.5,218.5C 878.5,218.5 873.5,218.5 868.5,218.5C 868.5,189.167 868.5,159.833 868.5,130.5C 850.833,130.5 833.167,130.5 815.5,130.5C 815.5,125.5 815.5,120.5 815.5,115.5 Z"/></g>
<g><path style="opacity:0.934" fill="#000000" d="M 1090.5,115.5 C 1094.77,115.203 1098.93,115.536 1103,116.5C 1117.58,143.328 1132.41,169.995 1147.5,196.5C 1162.59,169.995 1177.42,143.328 1192,116.5C 1196.07,115.536 1200.23,115.203 1204.5,115.5C 1204.67,119.182 1204.5,122.848 1204,126.5C 1187.37,156.92 1170.87,187.42 1154.5,218C 1149.58,218.802 1144.75,218.635 1140,217.5C 1123.92,187.007 1107.59,156.674 1091,126.5C 1090.5,122.848 1090.33,119.182 1090.5,115.5 Z"/></g>
<g><path style="opacity:0.95" fill="#34aaa3" d="M 226.5,180.5 C 227.974,178.863 229.808,177.863 232,177.5C 240.432,180.145 248.932,182.645 257.5,185C 257.957,185.414 258.291,185.914 258.5,186.5C 257.112,188.109 256.112,189.942 255.5,192C 256.977,195.33 257.811,198.83 258,202.5C 258.519,203.516 259.353,204.182 260.5,204.5C 264.454,203.316 268.454,202.316 272.5,201.5C 273.393,198.916 273.726,196.249 273.5,193.5C 280.208,194.372 284.208,198.206 285.5,205C 285.241,206.261 284.574,207.261 283.5,208C 287.069,206.642 289.569,207.808 291,211.5C 294.163,210.081 297.163,210.415 300,212.5C 300.483,213.448 300.649,214.448 300.5,215.5C 305.141,214.647 309.808,214.814 314.5,216C 318.281,219.209 322.614,221.375 327.5,222.5C 329.339,224.527 329.839,226.86 329,229.5C 326.05,234.118 322.716,238.452 319,242.5C 319.404,250.958 317.737,258.958 314,266.5C 308.067,268.538 302.234,271.038 296.5,274C 294.92,282.134 291.753,289.634 287,296.5C 285.499,298.584 283.499,299.917 281,300.5C 278.842,299.549 276.675,299.049 274.5,299C 279.757,302.854 279.757,306.521 274.5,310C 272.19,310.497 269.857,310.663 267.5,310.5C 267.5,312.5 267.5,314.5 267.5,316.5C 265.326,316.08 263.326,316.08 261.5,316.5C 262.833,317.833 264.167,319.167 265.5,320.5C 263.981,323.044 262.648,325.711 261.5,328.5C 262.347,329.845 263.513,330.845 265,331.5C 265.167,332.5 265.333,333.5 265.5,334.5C 263.916,338.175 263.25,341.842 263.5,345.5C 267.781,346.136 271.781,347.636 275.5,350C 277.657,350.078 279.657,350.245 281.5,350.5C 277.494,352.025 273.327,353.025 269,353.5C 265.371,351.673 261.537,350.173 257.5,349C 256.047,344.94 253.381,343.606 249.5,345C 249.888,343.192 249.888,341.525 249.5,340C 248.636,337.438 246.969,335.605 244.5,334.5C 244.709,333.914 245.043,333.414 245.5,333C 243.939,332.059 242.605,330.892 241.5,329.5C 245.277,327.663 245.277,325.996 241.5,324.5C 244.076,323.117 243.742,322.283 240.5,322C 238.626,317.642 237.126,313.142 236,308.5C 235.555,305.322 235.722,302.155 236.5,299C 234.171,286.279 233.005,273.446 233,260.5C 231.878,258.376 230.378,256.543 228.5,255C 223.747,252.542 219.247,249.708 215,246.5C 209.481,238.89 204.148,231.224 199,223.5C 198.383,220.965 198.883,218.632 200.5,216.5C 198.876,215.131 198.376,213.464 199,211.5C 203.321,206.515 206.821,201.015 209.5,195C 208.802,192.546 207.802,190.213 206.5,188C 206.833,187.667 207.167,187.333 207.5,187C 206.5,186.5 205.5,186 204.5,185.5C 203.071,186.935 201.405,187.935 199.5,188.5C 194.16,187.714 189.66,185.381 186,181.5C 185.383,180.551 185.549,179.718 186.5,179C 184,177.833 182.167,176 181,173.5C 180.439,174.022 179.772,174.355 179,174.5C 173.865,173.182 169.365,170.682 165.5,167C 154.959,167.252 145.292,164.252 136.5,158C 137.219,151.256 134.719,145.756 129,141.5C 126.031,136.557 123.365,131.557 121,126.5C 119.941,126.63 119.108,127.13 118.5,128C 121.594,134.017 124.261,140.184 126.5,146.5C 125.635,147.583 124.635,147.749 123.5,147C 121.546,143.701 119.38,140.534 117,137.5C 116.316,136.216 116.483,135.049 117.5,134C 114.667,130.662 114,126.995 115.5,123C 117.167,122.333 118.833,122.333 120.5,123C 124.411,124.455 128.411,125.622 132.5,126.5C 136.144,125.585 139.81,125.419 143.5,126C 144.87,127.441 145.87,129.108 146.5,131C 149.133,130.747 151.8,130.747 154.5,131C 155.583,134.937 157.75,138.104 161,140.5C 160.81,143.585 159.976,146.585 158.5,149.5C 159.694,158.236 164.361,161.403 172.5,159C 175.167,157.667 177.167,155.667 178.5,153C 181.063,151.921 183.729,151.421 186.5,151.5C 187.218,156.414 185.218,159.414 180.5,160.5C 179.77,162.341 179.103,164.175 178.5,166C 179.766,166.309 180.933,166.809 182,167.5C 194.454,163.458 197.954,167.458 192.5,179.5C 193.5,180.833 194.5,182.167 195.5,183.5C 199.449,184.019 203.449,184.186 207.5,184C 208.931,184.465 210.097,185.299 211,186.5C 213.19,184.612 215.023,182.445 216.5,180C 218.935,179.147 221.269,178.147 223.5,177C 224.833,176.333 226.167,176.333 227.5,177C 226.663,178.011 226.33,179.178 226.5,180.5 Z M 226.5,180.5 C 227.562,181.575 227.562,182.575 226.5,183.5C 225.224,182.386 225.224,181.386 226.5,180.5 Z M 263.5,345.5 C 262.234,346.09 260.901,346.59 259.5,347C 260.931,347.465 262.097,348.299 263,349.5C 263.49,348.207 263.657,346.873 263.5,345.5 Z"/></g>
<g><path style="opacity:0.685" fill="#34aaa3" d="M 198.5,147.5 C 207.313,147.407 215.313,149.907 222.5,155C 219.706,156.557 216.706,156.89 213.5,156C 208.344,151.114 202.344,149.614 195.5,151.5C 194.833,151.167 194.167,150.833 193.5,150.5C 195.145,149.304 196.811,148.304 198.5,147.5 Z"/></g>
<g><path style="opacity:0.666" fill="#34aaa3" d="M 224.5,156.5 C 229.284,155.839 233.618,156.839 237.5,159.5C 231.465,161.786 225.465,161.952 219.5,160C 221.134,159.506 222.801,159.34 224.5,159.5C 224.5,158.5 224.5,157.5 224.5,156.5 Z"/></g>
<g><path style="opacity:0.363" fill="#34aaa3" d="M 240.5,159.5 C 242.288,159.215 243.955,159.548 245.5,160.5C 244.667,160.833 243.833,161.167 243,161.5C 241.624,161.316 240.791,160.649 240.5,159.5 Z"/></g>
<g><path style="opacity:0.901" fill="#3a3b3a" d="M 802.5,269.5 C 807.167,269.5 811.833,269.5 816.5,269.5C 815.564,292.481 815.23,315.481 815.5,338.5C 811.5,338.5 807.5,338.5 803.5,338.5C 803.733,315.486 803.4,292.486 802.5,269.5 Z"/></g>
<g><path style="opacity:0.901" fill="#3a3b3a" d="M 1075.5,269.5 C 1080.17,269.5 1084.83,269.5 1089.5,269.5C 1088.56,292.481 1088.23,315.481 1088.5,338.5C 1084.5,338.5 1080.5,338.5 1076.5,338.5C 1076.73,315.486 1076.4,292.486 1075.5,269.5 Z"/></g>
<g><path style="opacity:0.916" fill="#3a3b3a" d="M 882.5,274.5 C 886.869,274.467 891.202,274.8 895.5,275.5C 894.806,280.805 894.472,286.138 894.5,291.5C 899.167,291.5 903.833,291.5 908.5,291.5C 908.5,295.167 908.5,298.833 908.5,302.5C 903.786,302.647 899.119,302.314 894.5,301.5C 894.196,310.221 894.529,318.888 895.5,327.5C 896.559,328.696 897.893,329.363 899.5,329.5C 902.783,328.673 906.116,328.34 909.5,328.5C 909.206,332.1 908.54,335.6 907.5,339C 900.392,339.924 893.392,339.591 886.5,338C 884.683,336.2 883.516,334.034 883,331.5C 882.448,322.127 882.448,312.793 883,303.5C 881.246,301.75 879.079,301.083 876.5,301.5C 876.335,298.482 876.502,295.482 877,292.5C 878.699,291.594 880.533,291.261 882.5,291.5C 882.5,285.833 882.5,280.167 882.5,274.5 Z"/></g>
<g><path style="opacity:0.926" fill="#3a3b3a" d="M 839.5,289.5 C 848.083,287.793 855.25,290.127 861,296.5C 862.269,295.095 862.769,293.429 862.5,291.5C 865.85,291.335 869.183,291.502 872.5,292C 873.022,292.561 873.355,293.228 873.5,294C 872.083,300.581 871.416,307.248 871.5,314C 872.029,321.839 872.196,329.672 872,337.5C 868.545,338.791 865.045,338.791 861.5,337.5C 861.023,336.069 860.357,334.736 859.5,333.5C 845.97,343.082 834.47,341.082 825,327.5C 818.318,310.121 823.152,297.454 839.5,289.5 Z M 845.5,299.5 C 854.86,300.355 859.86,305.521 860.5,315C 859.489,322.878 855.156,327.712 847.5,329.5C 835.016,325.525 831.516,317.525 837,305.5C 839.322,302.605 842.155,300.605 845.5,299.5 Z"/></g>
<g><path style="opacity:0.926" fill="#3a3b3a" d="M 929.5,289.5 C 938.083,287.793 945.25,290.127 951,296.5C 952.269,295.095 952.769,293.429 952.5,291.5C 955.85,291.335 959.183,291.502 962.5,292C 963.022,292.561 963.355,293.228 963.5,294C 962.083,300.581 961.416,307.248 961.5,314C 962.029,321.839 962.196,329.672 962,337.5C 958.545,338.791 955.045,338.791 951.5,337.5C 951.023,336.069 950.357,334.736 949.5,333.5C 935.97,343.082 924.47,341.082 915,327.5C 908.318,310.121 913.152,297.454 929.5,289.5 Z M 935.5,299.5 C 944.86,300.355 949.86,305.521 950.5,315C 949.489,322.878 945.156,327.712 937.5,329.5C 925.016,325.525 921.516,317.525 927,305.5C 929.322,302.605 932.155,300.605 935.5,299.5 Z"/></g>
<g><path style="opacity:0.926" fill="#3a3b3a" d="M 1035.5,289.5 C 1044.08,287.793 1051.25,290.127 1057,296.5C 1058.27,295.095 1058.77,293.429 1058.5,291.5C 1061.85,291.335 1065.18,291.502 1068.5,292C 1069.02,292.561 1069.36,293.228 1069.5,294C 1068.08,300.581 1067.42,307.248 1067.5,314C 1068.03,321.839 1068.2,329.672 1068,337.5C 1064.54,338.791 1061.04,338.791 1057.5,337.5C 1057.02,336.069 1056.36,334.736 1055.5,333.5C 1041.97,343.082 1030.47,341.082 1021,327.5C 1014.32,310.121 1019.15,297.454 1035.5,289.5 Z M 1041.5,299.5 C 1050.86,300.355 1055.86,305.521 1056.5,315C 1055.49,322.878 1051.16,327.712 1043.5,329.5C 1031.02,325.525 1027.52,317.525 1033,305.5C 1035.32,302.605 1038.16,300.605 1041.5,299.5 Z"/></g>
<g><path style="opacity:0.92" fill="#3a3b3a" d="M 1134.5,289.5 C 1141.3,288.853 1147.8,289.853 1154,292.5C 1154.66,295.534 1154.16,298.367 1152.5,301C 1139.65,296.926 1131.65,301.426 1128.5,314.5C 1131.77,327.969 1139.77,332.136 1152.5,327C 1154.29,330.249 1154.62,333.582 1153.5,337C 1138.52,343.119 1127.02,339.286 1119,325.5C 1113.61,308.82 1118.77,296.82 1134.5,289.5 Z"/></g>
<g><path style="opacity:0.919" fill="#3a3b3a" d="M 1174.5,289.5 C 1192.87,287.868 1203.2,296.201 1205.5,314.5C 1201.51,336.996 1188.84,344.163 1167.5,336C 1152.83,321.667 1152.83,307.333 1167.5,293C 1169.93,291.787 1172.26,290.621 1174.5,289.5 Z M 1178.5,299.5 C 1192.15,301.448 1196.65,309.114 1192,322.5C 1185.35,331.3 1178.35,331.633 1171,323.5C 1165.81,312.903 1168.31,304.903 1178.5,299.5 Z"/></g>
<g><path style="opacity:0.922" fill="#3a3b3a" d="M 589.5,290.5 C 593.5,290.5 597.5,290.5 601.5,290.5C 597.866,303.861 600.699,315.527 610,325.5C 612.838,321.828 615.171,317.828 617,313.5C 617.5,306.174 617.666,298.841 617.5,291.5C 621.5,291.5 625.5,291.5 629.5,291.5C 629.901,299.585 629.401,307.585 628,315.5C 624.171,323.163 619.837,330.496 615,337.5C 610.517,339.302 606.517,338.635 603,335.5C 600.083,331.334 597.416,327.001 595,322.5C 591.871,327.926 588.371,333.093 584.5,338C 580.683,339.023 577.183,338.523 574,336.5C 569.747,329.663 565.747,322.663 562,315.5C 560.287,307.653 560.121,299.82 561.5,292C 565.152,291.501 568.818,291.335 572.5,291.5C 570.244,304.246 573.077,315.58 581,325.5C 584.419,321.669 587.086,317.335 589,312.5C 589.5,305.174 589.666,297.841 589.5,290.5 Z"/></g>
<g><path style="opacity:0.922" fill="#3a3b3a" d="M 662.5,290.5 C 666.5,290.5 670.5,290.5 674.5,290.5C 670.866,303.861 673.699,315.527 683,325.5C 685.838,321.828 688.171,317.828 690,313.5C 690.5,306.174 690.666,298.841 690.5,291.5C 694.5,291.5 698.5,291.5 702.5,291.5C 702.901,299.585 702.401,307.585 701,315.5C 697.171,323.163 692.837,330.496 688,337.5C 683.517,339.302 679.517,338.635 676,335.5C 673.083,331.334 670.416,327.001 668,322.5C 664.871,327.926 661.371,333.093 657.5,338C 653.683,339.023 650.183,338.523 647,336.5C 642.747,329.663 638.747,322.663 635,315.5C 633.287,307.653 633.121,299.82 634.5,292C 638.152,291.501 641.818,291.335 645.5,291.5C 643.244,304.246 646.077,315.58 654,325.5C 657.419,321.669 660.086,317.335 662,312.5C 662.5,305.174 662.666,297.841 662.5,290.5 Z"/></g>
<g><path style="opacity:0.922" fill="#3a3b3a" d="M 735.5,290.5 C 739.5,290.5 743.5,290.5 747.5,290.5C 743.866,303.861 746.699,315.527 756,325.5C 758.838,321.828 761.171,317.828 763,313.5C 763.5,306.174 763.666,298.841 763.5,291.5C 767.5,291.5 771.5,291.5 775.5,291.5C 775.901,299.585 775.401,307.585 774,315.5C 770.171,323.163 765.837,330.496 761,337.5C 756.517,339.302 752.517,338.635 749,335.5C 746.083,331.334 743.416,327.001 741,322.5C 737.871,327.926 734.371,333.093 730.5,338C 726.683,339.023 723.183,338.523 720,336.5C 715.747,329.663 711.747,322.663 708,315.5C 706.287,307.653 706.121,299.82 707.5,292C 711.152,291.501 714.818,291.335 718.5,291.5C 716.244,304.246 719.077,315.58 727,325.5C 730.419,321.669 733.086,317.335 735,312.5C 735.5,305.174 735.666,297.841 735.5,290.5 Z"/></g>
<g><path style="opacity:0.918" fill="#3a3b3a" d="M 968.5,291.5 C 972.5,291.5 976.5,291.5 980.5,291.5C 977.759,305.602 981.426,317.602 991.5,327.5C 1000.59,317.088 1003.59,305.088 1000.5,291.5C 1004.5,291.5 1008.5,291.5 1012.5,291.5C 1013.67,299.544 1013.51,307.544 1012,315.5C 1007.45,323.435 1002.28,330.935 996.5,338C 992.004,340.167 987.837,339.667 984,336.5C 978.253,329.346 973.253,321.679 969,313.5C 968.5,306.174 968.334,298.841 968.5,291.5 Z"/></g>
<g><path style="opacity:0.923" fill="#3a3b3a" d="M 1213.5,291.5 C 1216.25,291.187 1218.91,291.52 1221.5,292.5C 1222.19,294.444 1222.69,296.444 1223,298.5C 1230.34,291.508 1238.84,289.675 1248.5,293C 1250.71,294.873 1252.54,297.04 1254,299.5C 1261.85,291.191 1271.02,289.358 1281.5,294C 1283.04,295.579 1284.21,297.413 1285,299.5C 1285.3,302.706 1285.8,305.872 1286.5,309C 1285.56,318.484 1285.39,327.984 1286,337.5C 1281.93,338.464 1277.77,338.797 1273.5,338.5C 1273.67,327.495 1273.5,316.495 1273,305.5C 1269.08,300.737 1264.58,300.237 1259.5,304C 1257.62,305.543 1256.12,307.376 1255,309.5C 1254.34,319.186 1254.51,328.852 1255.5,338.5C 1251.17,338.5 1246.83,338.5 1242.5,338.5C 1242.67,327.495 1242.5,316.495 1242,305.5C 1235.66,300.456 1229.66,301.123 1224,307.5C 1223.5,317.828 1223.33,328.161 1223.5,338.5C 1219.5,338.5 1215.5,338.5 1211.5,338.5C 1211.96,323.097 1211.29,307.764 1209.5,292.5C 1211.1,292.768 1212.43,292.434 1213.5,291.5 Z"/></g>
<g><path style="opacity:0.923" fill="#3a3b3a" d="M 1318.5,291.5 C 1321.25,291.187 1323.91,291.52 1326.5,292.5C 1327.19,294.444 1327.69,296.444 1328,298.5C 1335.34,291.508 1343.84,289.675 1353.5,293C 1355.71,294.873 1357.54,297.04 1359,299.5C 1366.85,291.191 1376.02,289.358 1386.5,294C 1388.04,295.579 1389.21,297.413 1390,299.5C 1390.3,302.706 1390.8,305.872 1391.5,309C 1390.56,318.484 1390.39,327.984 1391,337.5C 1386.93,338.464 1382.77,338.797 1378.5,338.5C 1378.67,327.495 1378.5,316.495 1378,305.5C 1374.08,300.737 1369.58,300.237 1364.5,304C 1362.62,305.543 1361.12,307.376 1360,309.5C 1359.34,319.186 1359.51,328.852 1360.5,338.5C 1356.17,338.5 1351.83,338.5 1347.5,338.5C 1347.67,327.495 1347.5,316.495 1347,305.5C 1340.66,300.456 1334.66,301.123 1329,307.5C 1328.5,317.828 1328.33,328.161 1328.5,338.5C 1324.5,338.5 1320.5,338.5 1316.5,338.5C 1316.96,323.097 1316.29,307.764 1314.5,292.5C 1316.1,292.768 1317.43,292.434 1318.5,291.5 Z"/></g>
<g><path style="opacity:0.915" fill="#3a3b3a" d="M 1397.5,291.5 C 1400.85,291.335 1404.18,291.502 1407.5,292C 1410.79,296.748 1413.96,301.581 1417,306.5C 1420.5,301.667 1424,296.833 1427.5,292C 1430.82,291.502 1434.15,291.335 1437.5,291.5C 1437.79,294.649 1437.29,297.649 1436,300.5C 1431.77,305.057 1427.94,309.89 1424.5,315C 1428.27,320.445 1432.44,325.611 1437,330.5C 1437.5,333.146 1437.66,335.813 1437.5,338.5C 1434.15,338.665 1430.82,338.498 1427.5,338C 1424,333.167 1420.5,328.333 1417,323.5C 1414.11,328.776 1410.61,333.609 1406.5,338C 1403.18,338.498 1399.85,338.665 1396.5,338.5C 1396.34,336.143 1396.5,333.81 1397,331.5C 1401.86,326.276 1406.36,320.776 1410.5,315C 1405.62,309.791 1401.12,304.291 1397,298.5C 1396.3,296.071 1396.46,293.738 1397.5,291.5 Z"/></g>
<g><path style="opacity:0.895" fill="#3a3b3a" d="M 784.5,324.5 C 791.242,322.757 795.242,325.257 796.5,332C 794.992,338.425 790.992,340.758 784.5,339C 779.235,334.076 779.235,329.242 784.5,324.5 Z"/></g>
<g><path style="opacity:0.895" fill="#3a3b3a" d="M 1100.5,324.5 C 1107.24,322.757 1111.24,325.257 1112.5,332C 1110.99,338.425 1106.99,340.758 1100.5,339C 1095.24,334.076 1095.24,329.242 1100.5,324.5 Z"/></g>
<g><path style="opacity:0.895" fill="#3a3b3a" d="M 1297.5,324.5 C 1304.24,322.757 1308.24,325.257 1309.5,332C 1307.99,338.425 1303.99,340.758 1297.5,339C 1292.24,334.076 1292.24,329.242 1297.5,324.5 Z"/></g>
<g><path style="opacity:0.462" fill="#34aaa3" d="M 281.5,332.5 C 282.978,332.238 284.311,332.571 285.5,333.5C 283.284,334.806 280.951,335.306 278.5,335C 279.571,334.148 280.571,333.315 281.5,332.5 Z"/></g>
</svg>
